<!DOCTYPE svg PUBLIC "-//W3C//DTD SVG 1.1//EN" "http://www.w3.org/Graphics/SVG/1.1/DTD/svg11.dtd">
<!-- Uploaded to: SVG Repo, www.svgrepo.com, Transformed by: SVG Repo Mixer Tools -->
<svg fill="#ffffff" height="800px" width="800px" version="1.1" id="Capa_1" xmlns="http://www.w3.org/2000/svg" xmlns:xlink="http://www.w3.org/1999/xlink" viewBox="0 0 347.903 347.903" xml:space="preserve" stroke="#ffffff">
<g id="SVGRepo_bgCarrier" stroke-width="0"/>
<g id="SVGRepo_tracerCarrier" stroke-linecap="round" stroke-linejoin="round"/>
<g id="SVGRepo_iconCarrier"> <path d="M321.093,244.759c-4.764-4.175-9.261-8.12-11.937-12.932c-0.089-0.164-0.184-0.325-0.282-0.484 c-8.386-13.416-11.139-42.7-12.961-62.08c-0.243-2.596-0.477-5.081-0.712-7.417c-0.015-0.153-0.034-0.305-0.055-0.458 c-3.61-25.277-12.541-61.671-34.577-91.498c-16.139-21.843-36.722-36.063-60.432-41.997v-1.708C200.138,11.747,188.39,0,173.952,0 c-14.439,0-26.186,11.747-26.186,26.186v1.708c-23.712,5.934-44.294,20.154-60.432,41.997 c-22.036,29.827-30.966,66.221-34.577,91.498c-0.023,0.152-0.041,0.304-0.056,0.458c-0.233,2.336-0.467,4.82-0.711,7.417 c-1.822,19.379-4.575,48.664-12.959,62.08c-0.099,0.159-0.194,0.32-0.286,0.484c-2.673,4.812-7.171,8.756-11.934,12.932 c-10.554,9.254-26.501,23.237-12.139,49.911c1.903,3.534,5.593,5.738,9.607,5.738h97.927c2.268,26.566,24.603,47.496,51.746,47.496 c27.144,0,49.476-20.93,51.745-47.496h97.926c4.015,0,7.703-2.204,9.607-5.738C347.593,267.996,331.645,254.013,321.093,244.759z M173.953,320.379c-11.947,0-21.912-8.624-24.012-19.971h48.021C195.863,311.755,185.9,320.379,173.953,320.379z"/> </g>
</svg>