<svg width="24" height="24" viewBox="0 0 24 24" fill="none" xmlns="http://www.w3.org/2000/svg">
<path d="M2.90603 17.505L5.33703 3.718C5.38256 3.45928 5.47861 3.21206 5.6197 2.99046C5.76079 2.76887 5.94415 2.57724 6.15932 2.42652C6.37448 2.27581 6.61723 2.16895 6.87369 2.11207C7.13016 2.05519 7.39532 2.04939 7.65403 2.095L19.472 4.18C19.9944 4.27218 20.4587 4.56808 20.7629 5.00259C21.067 5.43711 21.1862 5.97466 21.094 6.497L18.663 20.284C18.6175 20.5427 18.5214 20.7899 18.3804 21.0115C18.2393 21.2331 18.0559 21.4248 17.8407 21.5755C17.6256 21.7262 17.3828 21.833 17.1264 21.8899C16.8699 21.9468 16.6047 21.9526 16.346 21.907L4.52803 19.822C4.00569 19.7298 3.54137 19.4339 3.23719 18.9994C2.93301 18.5649 2.81389 18.0273 2.90603 17.505Z" stroke="#37393E" stroke-width="1.5"/>
<path d="M8.92898 6.382L16.808 7.771M8.23398 10.321L16.113 11.711M7.53998 14.26L12.464 15.129" stroke="#37393E" stroke-width="1.5" stroke-linecap="round"/>
</svg>
