<svg width="24" height="24" viewBox="0 0 24 24" fill="none" xmlns="http://www.w3.org/2000/svg">
<path d="M12 22C17.5228 22 22 17.5228 22 12C22 6.47715 17.5228 2 12 2C6.47715 2 2 6.47715 2 12C2 17.5228 6.47715 22 12 22Z" stroke="#37393E" stroke-width="1.5"/>
<path d="M16.583 9.667C15.81 8.097 14.043 7 11.988 7C9.388 7 7.25 8.754 7 11" stroke="#37393E" stroke-width="1.5" stroke-linecap="round" stroke-linejoin="round"/>
<path d="M14.494 9.722H16.4C16.4788 9.722 16.5568 9.70648 16.6296 9.67633C16.7024 9.64617 16.7685 9.60198 16.8243 9.54626C16.88 9.49055 16.9242 9.42441 16.9543 9.35161C16.9845 9.27881 17 9.20079 17 9.122V7.5M7.41699 13.667C8.19099 15.629 9.95699 17 12.012 17C14.612 17 16.748 14.807 17 12" stroke="#37393E" stroke-width="1.5" stroke-linecap="round" stroke-linejoin="round"/>
<path d="M9.506 13.622H7.6C7.44087 13.622 7.28826 13.6852 7.17574 13.7977C7.06321 13.9103 7 14.0629 7 14.222V16.4" stroke="#37393E" stroke-width="1.5" stroke-linecap="round" stroke-linejoin="round"/>
</svg>
