<svg xmlns="http://www.w3.org/2000/svg" viewBox="0 0 60 40">
  <rect width="60" height="40" fill="#B22234"/>
  <g fill="#FFFFFF">
    <rect y="5" width="60" height="5"/>
    <rect y="15" width="60" height="5"/>
    <rect y="25" width="60" height="5"/>
    <rect y="35" width="60" height="5"/>
  </g>
  <rect width="28" height="20" fill="#3C3B6E"/>
  <g fill="#FFFFFF">
    <circle cx="4" cy="4" r="0.9"/>
    <circle cx="8" cy="6" r="0.9"/>
    <circle cx="12" cy="4" r="0.9"/>
    <circle cx="16" cy="6" r="0.9"/>
    <circle cx="20" cy="4" r="0.9"/>
    <circle cx="24" cy="6" r="0.9"/>
    <circle cx="4" cy="10" r="0.9"/>
    <circle cx="8" cy="12" r="0.9"/>
    <circle cx="12" cy="10" r="0.9"/>
    <circle cx="16" cy="12" r="0.9"/>
    <circle cx="20" cy="10" r="0.9"/>
    <circle cx="24" cy="12" r="0.9"/>
    <circle cx="4" cy="16" r="0.9"/>
    <circle cx="8" cy="18" r="0.9"/>
    <circle cx="12" cy="16" r="0.9"/>
    <circle cx="16" cy="18" r="0.9"/>
    <circle cx="20" cy="16" r="0.9"/>
    <circle cx="24" cy="18" r="0.9"/>
  </g>
</svg>
