<svg xmlns="http://www.w3.org/2000/svg" viewBox="0 0 60 40">
  <rect width="60" height="40" fill="#DE2910"/>
  <polygon fill="#FFDE00" points="12.00,5.00 13.76,9.57 18.66,9.84 14.85,12.93 16.11,17.66 12.00,15.00 7.89,17.66 9.15,12.93 5.34,9.84 10.24,9.57"/>
  <polygon fill="#FFDE00" points="20.00,3.50 20.59,5.19 22.38,5.23 20.95,6.31 21.47,8.02 20.00,7.00 18.53,8.02 19.05,6.31 17.62,5.23 19.41,5.19"/>
  <polygon fill="#FFDE00" points="24.00,6.50 24.59,8.19 26.38,8.23 24.95,9.31 25.47,11.02 24.00,10.00 22.53,11.02 23.05,9.31 21.62,8.23 23.41,8.19"/>
  <polygon fill="#FFDE00" points="24.00,11.50 24.59,13.19 26.38,13.23 24.95,14.31 25.47,16.02 24.00,15.00 22.53,16.02 23.05,14.31 21.62,13.23 23.41,13.19"/>
  <polygon fill="#FFDE00" points="20.00,15.50 20.59,17.19 22.38,17.23 20.95,18.31 21.47,20.02 20.00,19.00 18.53,20.02 19.05,18.31 17.62,17.23 19.41,17.19"/>
</svg>
