<svg xmlns="http://www.w3.org/2000/svg" viewBox="0 0 60 40">
  <rect width="60" height="40" fill="#FFFFFF"/>
  <g transform="translate(30,20)">
    <circle r="9" fill="#C60C30"/>
    <path d="M0,0 a9,9 0 0 1 0,9 a9,9 0 0 1 0,-9" fill="#003478"/>
  </g>
  <g stroke="#000000" stroke-width="2">
    <line x1="10" y1="7" x2="18" y2="7"/>
    <line x1="10" y1="11" x2="18" y2="11"/>
    <line x1="10" y1="15" x2="18" y2="15"/>

    <line x1="42" y1="7" x2="50" y2="7"/>
    <line x1="42" y1="11" x2="50" y2="11"/>

    <line x1="10" y1="25" x2="18" y2="25"/>
    <line x1="10" y1="29" x2="18" y2="29"/>

    <line x1="42" y1="25" x2="50" y2="25"/>
    <line x1="42" y1="29" x2="50" y2="29"/>
    <line x1="46" y1="33" x2="50" y2="33"/>
  </g>
</svg>
