<svg width="30" height="30" viewBox="0 0 30 30" fill="none" xmlns="http://www.w3.org/2000/svg">
<path d="M13.7256 9.98816V16.8568H19.4883" stroke="#37393E" stroke-width="1.25" stroke-miterlimit="10" stroke-linecap="round" stroke-linejoin="round"/>
<path d="M25.0823 5.32462C22.389 2.63191 18.8083 1.14863 14.9996 1.14863C12.921 1.14863 10.8872 1.5978 9.02461 2.45775L9.32023 1.70207C9.5219 1.18587 9.26695 0.604361 8.75133 0.402695C8.23513 0.201028 7.65362 0.455976 7.45195 0.971601L6.21503 4.13582C6.07695 4.48874 6.09185 4.88691 6.2557 5.22894C6.41956 5.5704 6.72091 5.83165 7.08242 5.94509L10.324 6.96145C10.4237 6.99296 10.5251 7.00785 10.6242 7.00785C11.051 7.00785 11.4463 6.73342 11.581 6.30488C11.7465 5.77608 11.4526 5.21348 10.9238 5.0479L9.32367 4.54603C11.0671 3.63337 13.0087 3.15556 14.999 3.15556C18.2721 3.15556 21.3486 4.4303 23.6632 6.74431C25.9772 9.05889 27.252 12.1355 27.252 15.4085C27.252 18.6816 25.9772 21.7587 23.6632 24.0728C21.3486 26.3868 18.2721 27.6615 14.999 27.6615C11.7259 27.6615 8.64878 26.3868 6.33477 24.0728C4.02018 21.7582 2.74602 18.6816 2.74602 15.4085C2.74602 13.4618 3.18888 11.6009 4.06201 9.87759C4.31237 9.38374 4.11471 8.77988 3.62086 8.52952C3.12701 8.27915 2.52315 8.47681 2.27279 8.97066C1.25586 10.977 0.740234 13.1426 0.740234 15.4074C0.740234 19.2161 2.22352 22.7969 4.9168 25.4901C7.61008 28.1834 11.1908 29.6667 14.9996 29.6667C18.8083 29.6667 22.389 28.1834 25.0823 25.4901C27.7756 22.7969 29.2589 19.2161 29.2589 15.4074C29.2589 11.5986 27.7756 8.0179 25.0823 5.32462Z" fill="#37393E"/>
</svg>
