<svg fill="#ffffff" height="200px" width="200px" version="1.1" id="Capa_1" xmlns="http://www.w3.org/2000/svg" xmlns:xlink="http://www.w3.org/1999/xlink" viewBox="0 0 448.831 448.831" xml:space="preserve" stroke="#ffffff"><g id="SVGRepo_bgCarrier" stroke-width="0"></g><g id="SVGRepo_tracerCarrier" stroke-linecap="round" stroke-linejoin="round"></g><g id="SVGRepo_iconCarrier"> <path d="M445.535,394.287L244.569,32.413c-4.386-7.894-11.92-12.606-20.153-12.606c-8.234,0-15.768,4.713-20.154,12.609 L3.297,394.286c-4.297,7.735-4.4,16.538-0.275,23.546c4.124,7.009,11.87,11.193,20.719,11.193h401.35 c8.849,0,16.594-4.185,20.719-11.192C449.933,410.825,449.831,402.022,445.535,394.287z M224.416,68.214l40.356,72.667 c-9.483-11.836-24.044-19.438-40.356-19.438c-16.31,0-30.871,7.6-40.354,19.436L224.416,68.214z M273.868,333.863 c-2.773-9.075-7.978-17.096-14.855-23.301c4.708,1.416,9.692,2.186,14.855,2.186s10.147-0.77,14.855-2.186 C281.846,316.767,276.641,324.788,273.868,333.863z M174.964,333.863c-2.773-9.075-7.978-17.096-14.855-23.301 c4.708,1.416,9.692,2.186,14.855,2.186s10.147-0.77,14.855-2.186C182.942,316.767,177.737,324.788,174.964,333.863z M224.415,276.128c2.773,9.075,7.978,17.096,14.855,23.301c-4.708-1.416-9.692-2.186-14.855-2.186s-10.147,0.77-14.855,2.186 C216.438,293.224,221.642,285.203,224.415,276.128z M224.415,245.963c-2.773-9.075-7.978-17.096-14.855-23.301 c4.708,1.416,9.692,2.186,14.855,2.186s10.147-0.77,14.855-2.186C232.393,228.867,227.189,236.888,224.415,245.963z M189.819,211.529c-4.708-1.416-9.692-2.186-14.855-2.186c-15.277,0-29.022,6.665-38.495,17.234l39.155-70.504 c-1.877,5.349-2.91,11.09-2.91,17.072C172.714,188.361,179.324,202.059,189.819,211.529z M140.367,299.429 c-4.708-1.416-9.692-2.186-14.855-2.186c-14.46,0-27.545,5.974-36.937,15.575l36.736-66.149c-1.325,4.567-2.049,9.388-2.049,14.376 C123.262,276.261,129.872,289.959,140.367,299.429z M174.964,364.028c3.918,12.822,12.698,23.535,24.18,29.997h-48.361 C162.265,387.562,171.045,376.85,174.964,364.028z M273.868,364.028c3.918,12.822,12.698,23.535,24.18,29.997h-48.361 C261.169,387.562,269.949,376.85,273.868,364.028z M323.319,297.244c-5.163,0-10.147,0.77-14.855,2.186 c10.495-9.47,17.105-23.168,17.105-38.384c0-4.99-0.725-9.812-2.05-14.38l36.74,66.156 C350.866,303.219,337.78,297.244,323.319,297.244z M273.868,209.343c-5.163,0-10.147,0.77-14.855,2.186 c10.496-9.47,17.105-23.168,17.105-38.384c0-5.982-1.033-11.725-2.91-17.074l39.157,70.509 C302.892,216.01,289.145,209.343,273.868,209.343z M75.27,336.776c-0.946,3.905-1.46,7.978-1.46,12.17 c0,19.333,10.673,36.21,26.43,45.079H43.477L75.27,336.776z M348.591,394.025c15.757-8.869,26.43-25.747,26.43-45.079 c0-4.193-0.514-8.267-1.461-12.173l31.795,57.252H348.591z"></path> </g></svg>
