<svg xmlns="http://www.w3.org/2000/svg" width="20" height="20" viewBox="0 0 20 20" fill="none">
  <path d="M4.7998 4.79987H4.8098M8.26177 0.750061H5.55C3.86984 0.750061 3.02976 0.750061 2.38803 1.07704C1.82354 1.36466 1.3646 1.8236 1.07698 2.38809C0.75 3.02982 0.75 3.8699 0.75 5.55006V8.26184C0.75 8.99561 0.75 9.36249 0.83289 9.70776C0.90638 10.0139 1.02759 10.3065 1.19208 10.5749C1.3776 10.8777 1.63703 11.1371 2.15589 11.6559L6.85589 16.3559C8.04393 17.544 8.63797 18.138 9.32295 18.3606C9.92548 18.5564 10.5745 18.5564 11.1771 18.3606C11.862 18.138 12.4561 17.544 13.6441 16.3559L16.3559 13.6442C17.5439 12.4561 18.138 11.8621 18.3605 11.1771C18.5563 10.5746 18.5563 9.92554 18.3605 9.32301C18.138 8.63803 17.5439 8.04399 16.3559 6.85595L11.6559 2.15595C11.137 1.63709 10.8776 1.37767 10.5749 1.19214C10.3064 1.02765 10.0138 0.906441 9.7077 0.832951C9.36243 0.750061 8.99555 0.750061 8.26177 0.750061ZM5.2998 4.79987C5.2998 5.07601 5.07595 5.29987 4.7998 5.29987C4.52366 5.29987 4.2998 5.07601 4.2998 4.79987C4.2998 4.52372 4.52366 4.29987 4.7998 4.29987C5.07595 4.29987 5.2998 4.52372 5.2998 4.79987Z" stroke="#37393E" stroke-width="1.5" stroke-linecap="round" stroke-linejoin="round"/>
</svg>
